<?xml version="1.0" encoding="utf-8"?>
<!-- Generator: Adobe Illustrator 16.0.0, SVG Export Plug-In . SVG Version: 6.00 Build 0)  -->
<!DOCTYPE svg PUBLIC "-//W3C//DTD SVG 1.1//EN" "http://www.w3.org/Graphics/SVG/1.1/DTD/svg11.dtd">
<svg version="1.1" id="Layer_1" xmlns="http://www.w3.org/2000/svg" xmlns:xlink="http://www.w3.org/1999/xlink" x="0px" y="0px"
	 width="37.638px" height="36.127px" viewBox="0 0 37.638 36.127" enable-background="new 0 0 37.638 36.127" xml:space="preserve">
<rect x="18.109" y="14" fill="none" width="3" height="13"/>
<path fill="none" d="M19.478,8.916c-0.532,0-0.947,0.148-1.244,0.445s-0.445,0.7-0.445,1.209c0,0.524,0.154,0.932,0.463,1.221
	c0.308,0.289,0.717,0.434,1.226,0.434c0.486,0,0.883-0.145,1.192-0.434c0.308-0.289,0.463-0.696,0.463-1.221
	c0-0.509-0.15-0.912-0.452-1.209C20.38,9.064,19.979,8.916,19.478,8.916z"/>
<path fill="#FFFFFF" d="M19.474,0h-0.039C9.371,0,1.215,7.933,1.215,18c0,3.068,0.765,5.836,2.103,8.373L0,36l9.109-3.073v0.015
	c3,1.939,6.488,3.185,10.237,3.185c10.072,0,18.292-8.054,18.292-18.127C37.638,7.933,29.537,0,19.474,0z M21.109,27h-3V14h3V27z
	 M20.833,11.791c-0.309,0.289-0.706,0.434-1.192,0.434c-0.509,0-0.918-0.145-1.226-0.434c-0.309-0.289-0.463-0.696-0.463-1.221
	c0-0.509,0.148-0.912,0.445-1.209s0.711-0.445,1.244-0.445c0.501,0,0.902,0.148,1.203,0.445c0.301,0.297,0.452,0.7,0.452,1.209
	C21.296,11.095,21.142,11.502,20.833,11.791z"/>
</svg>
